<svg version="1.1" xmlns="http://www.w3.org/2000/svg" xmlns:xlink="http://www.w3.org/1999/xlink" width="572.5" height="276.5" viewBox="0,0,572.5,276.5"><g transform="translate(306.5,-154)"><g stroke-miterlimit="10"><path d="M-306.5,430.5v-6h2v6z" fill="#717171" stroke="none" stroke-width="0"/><path d="M216.5,203.5v-47h47v47z" fill="#717171" stroke="#000000" stroke-width="5"/><path d="M241.0368,167.83771c1.03151,0.12801 1.82498,1.26902 1.63983,2.63696c-0.18514,1.36847 -1.23252,2.2836 -2.27461,2.15665c-1.0368,-0.12695 -1.8144,-1.27219 -1.63455,-2.63855c0.16927,-1.28225 1.10028,-2.16723 2.0736,-2.16723c0.06348,0 0.13224,0.00423 0.19572,0.01217zM241.79853,173.30313c0.80934,0.44434 -1.37006,8.71757 -1.48114,9.09315c1.94664,2.84591 3.46481,5.52783 4.98827,8.47424l-1.58165,1.28542c-1.97309,-3.49126 -5.45906,-7.16767 -7.03542,-10.91813c-0.04232,-1.56049 0.35971,-3.64467 0.69825,-5.38501c-0.60833,0.69825 -1.24839,1.35419 -2.03128,1.78795c-0.67709,1.2431 -0.76173,2.65547 -1.11086,3.9885l-1.49172,0.04232c0.32797,-1.7615 0.48666,-3.523 1.09499,-5.28979c0.99448,-1.27484 2.96228,-3.158 4.9724,-3.49126c0.81463,0.72999 1.90961,0.88868 2.97815,0.4126zM243.36431,177.96343l4.09959,1.98896l-0.48666,1.58165c-1.37535,-0.55014 -2.75069,-1.13202 -4.12604,-1.94135c-0.35971,-0.25391 -0.5184,-0.52369 -0.75644,-0.80934c0.24862,-0.93629 0.365,-1.85143 0.52898,-2.79301c0.32268,0.64006 0.51311,1.31187 0.74057,1.97309zM238.39719,186.01978l-0.74057,2.25345c-0.88868,1.41766 -2.30635,2.58142 -3.52829,3.90387l-1.58694,-1.22723c1.31187,-1.31187 2.35925,-2.36454 3.20032,-4.0414c0.09522,-1.39121 0.34384,-2.72424 0.61362,-4.04669c0.53956,1.10557 1.21136,2.15294 2.04186,3.158z" fill="#000000" stroke="none" stroke-width="1"/></g></g></svg>